<svg xmlns="http://www.w3.org/2000/svg" xmlns:xlink="http://www.w3.org/1999/xlink" width="96.177" height="104.333" xmlns:v="https://vecta.io/nano"><defs><filter  x="19.116" y="41.66" width="15" height="15" filterUnits="userSpaceOnUse"><feOffset dx="7" dy="7"/><feGaussianBlur stdDeviation="2.5" result="A"/><feFlood flood-opacity=".749"/><feComposite operator="in" in2="A"/><feComposite in="SourceGraphic"/></filter><linearGradient id="B" y1=".5" x2="1" y2=".5"><stop offset="0" stop-color="#ff0801"/><stop offset="1" stop-color="#740b0a"/></linearGradient><linearGradient id="C" x1=".556" y1=".039" x2=".432" y2="1.176"><stop offset="0" stop-color="#ff9a13"/><stop offset="1" stop-color="#fd1816"/></linearGradient><linearGradient id="D" x1="-.02" y1=".524" x2="1.217" y2=".474"><stop offset="0" stop-color="#fff" stop-opacity=".102"/><stop offset="1" stop-color="#fff" stop-opacity=".8"/></linearGradient><linearGradient id="E" x1=".477" y1=".72" x2=".632" y2=".082" xlink:href="#B"/><linearGradient id="F" x1=".368" y1=".687" x2=".844" y2=".094"><stop offset="0" stop-color="#be0d0d" stop-opacity="0"/><stop offset="1" stop-color="#220607"/></linearGradient><linearGradient id="G" x1=".346" y1=".667" x2=".876" y2="-.096" xlink:href="#F"/><linearGradient id="H" y1=".822" x2=".691" y2="-.206" xlink:href="#F"/><linearGradient id="I" x1=".309" y1=".823" x2="1.049" y2=".284" xlink:href="#F"/><linearGradient id="J" x1=".513" y1=".145" x2=".382" y2="1.309" xlink:href="#B"/><linearGradient id="K" x1="168.954" y1="-224.465" x2="169.294" y2="-225.188" xlink:href="#F"/><linearGradient id="L" x1=".5" x2=".5" y2="1"><stop offset="0" stop-color="#ec6416"/><stop offset="1" stop-color="#c11b1b"/></linearGradient></defs><path d="M27.647 65.96a9.56 9.56 0 0 1-5.014 1.3 10.43 10.43 0 0 1-1.919-.186l1.549-5.943c.508.12 1.027.183 1.549.186q4.028 0 6.135-4.271h9.854L27.714 103.72h-9.847zm23.443 5.726q-2 2.354-6.908 2.354-.973 0-2.047-.1l1.279-4.912q4.605.153 7.113-1.382a15.15 15.15 0 0 1 8.8-3.121q8.137 0 8.136 10.337a37.74 37.74 0 0 1-1.33 9.569c-1.07 4.437-2.887 8.659-5.373 12.486q-5.015 7.421-11.719 7.42-8.086 0-8.085-10.388a38.38 38.38 0 0 1 1.33-9.518 42.44 42.44 0 0 1 3.122-8.392q3.686-.361 5.682-4.353zm6.448-.2q-2.662 0-4.912 5.526-.717 1.842-2.2 7.42a58.58 58.58 0 0 0-1.688 8.034q-.052.717-.052 1.33 0 3.583 2.2 3.582 2.61 0 4.81-5.527a59.12 59.12 0 0 0 2.3-7.42 55.82 55.82 0 0 0 1.637-8.034q.051-.716.051-1.331.003-3.584-2.146-3.585zm20.724.2q-2 2.354-6.909 2.354-.972 0-2.047-.1l1.279-4.912q4.605.153 7.113-1.382a15.15 15.15 0 0 1 8.8-3.121q8.136 0 8.136 10.337a37.74 37.74 0 0 1-1.331 9.569c-1.07 4.437-2.887 8.659-5.373 12.486q-5.016 7.421-11.719 7.42-8.086 0-8.085-10.388a38.38 38.38 0 0 1 1.33-9.518c.742-2.9 1.789-5.713 3.122-8.392q3.688-.361 5.684-4.353zm6.448-.2q-2.661 0-4.912 5.526-.717 1.842-2.2 7.42c-.75 2.635-1.315 5.32-1.689 8.034q-.052.717-.051 1.33 0 3.583 2.2 3.582 2.61 0 4.81-5.527c.929-2.42 1.697-4.899 2.3-7.42a55.95 55.95 0 0 0 1.638-8.034q.05-.716.051-1.331.002-3.584-2.147-3.585z" fill="#2e2a2b"/><circle cx="19.525" cy="51.776" fill="url(#B)" r="2.494"/><path d="M9.702 39.628a10.41 10.41 0 0 1-.3-1.813 10.78 10.78 0 0 1 .655-4.558 8.65 8.65 0 0 1-3.968-.644c-4.15-1.78-6.518-7.02-5.79-11.684a11.69 11.69 0 0 1 5.593-8 10.6 10.6 0 0 1 6.393-1.209A16.66 16.66 0 0 1 18.201 3c.81-.6 6.07-4.362 12.549-2.481 5.353 1.731 9.358 6.212 10.478 11.726a10.3 10.3 0 0 1 5.12.186c2.442.754 4.539 2.348 5.919 4.5 2.541 4.1 2.455 10.4-1.376 13.987-1.905 1.681-4.348 2.627-6.888 2.668a24.5 24.5 0 0 0-.025 1.259c0 .677.031 1.161.038 1.3a9.86 9.86 0 0 1-.556 3.272c-1.979 1.248-5.047 2.726-8.1 1.873-3.115-.868-4.039-3.5-6.2-5.047-2.643-1.891-7.879-2.679-19.458 3.385z" fill="url(#C)"/><path d="M53.766 20.752c-.23-1.116-1.377-5.828-5.873-7.832a10.32 10.32 0 0 0-6.648-.5 14.88 14.88 0 0 0-5.389-6.951c-3.78-2.59-9.583-3.815-14.559-1.061-.4.22-5.6 3.211-6.548 9.217-.256 1.662-.17 3.358.252 4.986-1.712-3.012-5.527-4.089-8.562-2.418a6.36 6.36 0 0 0-2.065 8.713c.996 1.236 2.413 2.061 3.979 2.317.841.123 1.698.071 2.518-.151.106.75.14 1.509.1 2.266a19.5 19.5 0 0 1-1.119 4.724c-.428 1.754-.459 3.582-.09 5.35a99.83 99.83 0 0 1 8.059-1.813c7.187-1.309 8.3-1.367 9.368-1.058 3.794 1.1 4.06 4.009 7.627 5.08 3.085.926 6.189-.252 8.369-1.427a8.74 8.74 0 0 0 .588-1.712c.202-.845.282-1.714.239-2.581a12.19 12.19 0 0 1-.038-1.6c.016-.309.043-.562.063-.73a9.4 9.4 0 0 0 1-.033c1.491-.13 2.931-.602 4.21-1.379a9.42 9.42 0 0 0 2.972-2.972c1.548-2.521 2.099-5.529 1.547-8.435zm-21.587-.53c-4.613.524-6.3 2.623-11.484 4.9-3.861 1.7-6.941 3-9.8 1.746-1.371-.648-2.508-1.703-3.257-3.022a11.11 11.11 0 0 0 2.921 1.108 12.54 12.54 0 0 0 5.876-.235c.931-.219 2.214-.573 7.521-2.921 3.989-1.765 5.464-2.538 7.756-2.384a9.56 9.56 0 0 1 2.988.7 17.34 17.34 0 0 0-2.523.109z" fill="url(#D)"/><path d="M40.527 39.672a7.31 7.31 0 0 1-3.66.933 4.55 4.55 0 0 1-3.187-1.206 4.76 4.76 0 0 1-1.019-3.632c.141-1.524.67-2.987 1.536-4.249.784-1.389 1.743-2.672 2.853-3.818-5.131.613-9.932 2.851-13.7 6.388a8.77 8.77 0 0 1-.33-1.076 9.87 9.87 0 0 1 .459-5.727 9.67 9.67 0 0 0-3.058 1.629c-1.275.883-2.401 1.963-3.337 3.2-.1.155-.358.556-.538.506-.305-.085-.183-1.382-.172-1.485.066-.642.241-1.268.517-1.852a33.13 33.13 0 0 0-2.928 3.057 24.57 24.57 0 0 0-5.469 9.588 17.9 17.9 0 0 0-.6 6.1 16.27 16.27 0 0 0 .19 1.436c1.2-1.656 4.141-5.365 8.9-6.555a12.78 12.78 0 0 1 5.777-.125c1.053.216 2.246.591 4.209 1.117 6.556 1.756 9.879 2.611 12.122 1.529 1.807-.995 3.241-2.552 4.084-4.435a9.35 9.35 0 0 0 .789-3.689c-1.005.977-2.167 1.777-3.438 2.366z" fill="url(#E)"/><path d="M16.893 29.298a27.46 27.46 0 0 0-4.928 5.473c-1.469 2.058-2.589 4.344-3.314 6.766-.367 1.259-.62 2.549-.755 3.853 1.288-1.079 2.774-1.897 4.374-2.409l.285-2.149a32.79 32.79 0 0 1 4.338-11.534z" fill="url(#F)"/><path d="M23.473 27.274c-.537.185-1.06.41-1.564.673a11.7 11.7 0 0 0-1.829 1.187 17.12 17.12 0 0 0-3.438 3.576 14 14 0 0 0-2.2 5.855l3.425-.453a21.2 21.2 0 0 1 5.606-10.838z" fill="url(#G)"/><path d="M22.879 39.489a54.11 54.11 0 0 1 14.233-11.794 23.6 23.6 0 0 0-16.416 9.444z" fill="url(#H)"/><path d="M43.978 37.385c-.064 1.529-.486 3.021-1.234 4.356-.445.785-1.888 3.332-4.583 3.979a8.9 8.9 0 0 1-3.123.05 12.61 12.61 0 0 1-2.694-.6l.843-1.578c1.794.353 3.651.184 5.352-.487 2.518-1.085 4.482-3.151 5.439-5.72z" fill="url(#I)"/><path d="M36.401 10.418a13 13 0 0 1 1.075 2.74 13.19 13.19 0 0 1 .322 5.1 6.51 6.51 0 0 1 1.075-.779 7.3 7.3 0 0 1 4.836-.779 6.77 6.77 0 0 1 4.728 5.7c.032-.439.023-.879-.027-1.316-.194-1.821-1.055-3.505-2.418-4.728a6.81 6.81 0 0 0-6.985-.645c-.072-1.192-.421-2.352-1.021-3.385a7.58 7.58 0 0 0-1.585-1.908z" fill="#f6e3ba" opacity=".75"/><path d="M18.947 42.113a12.76 12.76 0 0 0-6.7 2.384 11.53 11.53 0 0 0-3.442 3.492A10.97 10.97 0 0 0 7.7 50.373h-.009l-.54 1.477-6.187 5.462c-.416.377-.719.861-.876 1.4-.11.43-.117.88-.021 1.314A15.16 15.16 0 0 1 2.7 58.895a12.83 12.83 0 0 1 3.8-.664c1.276-.005 1.942-.008 2.53.42 1.145.832 1.121 2.656 1.1 3.531-.115 4.378-3.122 5.683-3.05 9.825-.062 1.001.182 1.997.7 2.856 1.3 1.932 4.362 2.669 6.789 1.766 3.179-1.184 3.924-4.68 4.019-5.167.271-1.789-.031-3.618-.861-5.225-.881-1.814-2.064-3.464-3.5-4.88-1.9-2.161-2.16-1.985-3.015-3.215-1.292-1.841-2.006-4.025-2.052-6.273.191-4.361 4.01-6.988 4.621-7.408 1.919-1.213 4.12-1.904 6.388-2.006a15.36 15.36 0 0 1 1.444.042c.782.052 1.557.184 2.312.394-1.593-.58-3.284-.844-4.978-.778z" fill="url(#J)"/><path d="M0 59.73a3.36 3.36 0 0 1 .125-1.045c.263-.928.913-1.51 2.2-2.636l1.808-1.525.783-.691 1.067-.931 2.265-1.8a9.23 9.23 0 0 0-.551 3.432q-.651.319-1.314.68A33.94 33.94 0 0 0 0 59.73z" fill="url(#K)"/><g fill="url(#L)"><path d="M51.067 42.217a4.88 4.88 0 0 1-2.466.609 6.98 6.98 0 0 1-.913-.06l.761-2.862h.761c1.324-.015 2.506-.835 2.983-2.07h4.84c2.347-.029 4.595.946 6.179 2.679a5.48 5.48 0 0 1 1 3.226c-.059 1.729-.752 3.376-1.948 4.627a9.2 9.2 0 0 1-3.714 1.979 9.54 9.54 0 0 1-3.926.3l.669-2.77q3.836.335 4.688-3.622.03-.3.03-.609a2.37 2.37 0 0 0-1.31-2.252 3.83 3.83 0 0 0-1.949-.426c-.182.021-.366.021-.548 0l-5.127 19.697h-4.85z"/><path d="M65.708 60.697h-4.186l5.661-21.672H71.4z"/><path d="M74.198 57.314a.78.78 0 0 0 .515.153 3.1 3.1 0 0 0 1.3-.367c.697-.413 1.224-1.062 1.484-1.83l2.35-8.975h4.213l-3.744 14.489h-4.242l.257-.883a7.81 7.81 0 0 1-3.713.974c-.224.002-.447-.008-.67-.03q-2.5-.639-2.5-3.653a4.99 4.99 0 0 1 .091-.974l2.618-9.923h4.187l-2.617 9.92a2.65 2.65 0 0 0-.017.3c-.008.339.183.651.488.799z"/><path d="M95.325 50.344a6.8 6.8 0 0 0-4.078-1.248c-.37.008-.73.124-1.035.335a.97.97 0 0 0-.517.822q0 .487 1.309 1.157a15.86 15.86 0 0 1 2.435 1.4 3.23 3.23 0 0 1 1.278 2.557 5.33 5.33 0 0 1-1.735 4.155 6.25 6.25 0 0 1-4.353 1.568 12.2 12.2 0 0 1-2.5-.365 6.5 6.5 0 0 1-2.283-.761l.853-3.378c1.228.678 2.616 1.014 4.018.974q2.009 0 2.009-1.126 0-.852-1.2-1.522-1.2-.67-2.39-1.309c-.784-.536-1.251-1.425-1.248-2.374a4.99 4.99 0 0 1 1.826-3.926 6.1 6.1 0 0 1 4.11-1.492 7.57 7.57 0 0 1 4.352 1.126z"/></g></svg>