<?xml version="1.0" standalone="no"?>
<!DOCTYPE svg PUBLIC "-//W3C//DTD SVG 20010904//EN"
 "http://www.w3.org/TR/2001/REC-SVG-20010904/DTD/svg10.dtd">
<svg version="1.0" xmlns="http://www.w3.org/2000/svg"
 width="260.000000pt" height="260.000000pt" viewBox="0 0 260.000000 260.000000"
 preserveAspectRatio="xMidYMid meet">
<metadata>
Created by potrace 1.14, written by Peter Selinger 2001-2017
</metadata>
<g transform="translate(0.000000,260.000000) scale(0.100000,-0.100000)"
fill="#000000" stroke="none">
<path d="M523 1691 c-176 -65 -221 -205 -79 -245 28 -9 83 -24 122 -35 78 -23
99 -45 82 -91 -31 -85 -171 -154 -299 -148 -79 4 -95 23 -112 132 -14 94 -31
112 -74 80 -23 -17 -29 -30 -31 -69 -5 -69 29 -117 104 -144 31 -12 66 -28 78
-36 11 -8 32 -15 45 -15 23 0 24 1 6 13 -16 12 -11 15 46 20 171 16 282 90
296 197 4 31 1 45 -13 61 -27 30 -42 36 -143 59 -111 24 -141 42 -141 80 0 35
49 86 107 112 62 27 159 34 205 15 74 -31 75 -105 1 -125 l-38 -10 36 -1 c23
-1 46 7 63 20 38 30 34 92 -7 123 -41 30 -181 34 -254 7z m-321 -389 c9 -37
20 -76 24 -87 7 -20 7 -20 -15 0 -32 28 -51 68 -51 108 0 32 6 47 19 47 3 0
13 -30 23 -68z"/>
<path d="M925 1583 c-31 -33 -139 -194 -184 -274 -33 -60 -39 -90 -18 -107 10
-9 18 -1 36 36 21 43 24 45 35 27 25 -44 65 -75 96 -75 34 0 79 20 99 44 18
21 28 20 36 -3 14 -46 67 -31 158 44 32 26 61 45 64 41 9 -9 -66 -158 -104
-204 -55 -67 -91 -72 -136 -18 l-18 21 7 -25 c11 -40 34 -60 71 -60 48 0 125
80 178 185 22 44 57 106 78 138 35 54 42 87 19 87 -4 0 -43 -34 -86 -75 -86
-83 -156 -135 -180 -135 -33 0 -21 22 92 159 29 35 31 42 17 47 -27 11 -60
-14 -109 -82 -74 -100 -149 -151 -193 -131 -18 8 -53 70 -53 93 0 3 18 3 39
-1 46 -8 133 25 156 59 32 45 7 106 -44 106 -12 0 -37 -7 -56 -14 -19 -8 -35
-12 -35 -8 0 4 23 36 50 71 27 35 47 67 44 72 -10 16 -33 9 -59 -18z m70 -153
c0 -18 -12 -31 -46 -53 -55 -33 -129 -48 -129 -25 0 21 49 64 100 87 55 26 75
23 75 -9z"/>
<path d="M1803 1578 c-68 -72 -173 -266 -173 -320 0 -81 86 -83 160 -4 33 34
37 33 36 -10 -2 -67 52 -72 114 -10 43 43 50 44 50 8 0 -32 16 -52 41 -52 9 0
43 21 74 46 31 25 57 45 58 43 1 -2 9 -17 17 -34 28 -53 57 -59 140 -28 74 28
160 95 160 123 0 8 -19 -4 -42 -27 -40 -38 -77 -63 -94 -63 -19 0 27 204 53
232 18 20 10 51 -12 46 -8 -2 -84 -72 -168 -155 -85 -84 -161 -153 -170 -153
-34 0 -17 48 44 130 57 77 68 110 36 110 -14 0 -61 -48 -119 -120 -69 -86
-116 -130 -140 -130 -32 0 34 132 100 203 22 23 24 29 12 37 -22 13 -45 -5
-128 -103 -78 -92 -128 -130 -164 -125 -50 7 -19 76 119 273 35 49 62 94 60
100 -7 21 -34 14 -64 -17z m531 -160 c-24 -142 -39 -178 -76 -178 -12 0 -30 7
-40 17 -32 29 -22 63 39 131 65 71 85 78 77 30z"/>
<path d="M1353 1484 c-8 -22 18 -37 36 -20 7 8 10 19 7 25 -10 16 -36 13 -43
-5z"/>
<path d="M1423 1418 c-85 -91 -179 -269 -169 -320 13 -66 46 -78 39 -14 -8 69
47 166 72 126 9 -15 90 -12 129 4 18 7 49 28 70 46 107 94 79 216 -41 181 -20
-6 -35 -6 -38 0 -11 17 -31 9 -62 -23z m161 -41 c-3 -77 -118 -170 -187 -151
-52 15 -45 37 36 120 70 71 76 75 113 72 38 -3 39 -4 38 -41z"/>
<path d="M122 938 l3 -53 1123 -3 c746 -1 1122 1 1122 8 0 5 -6 10 -14 10 -10
0 -14 10 -13 33 2 29 5 32 38 35 31 3 37 -1 43 -20 4 -16 0 -28 -14 -40 -29
-24 -25 -29 23 -26 l42 3 3 53 3 52 -170 0 -171 0 0 -46 c0 -32 -4 -44 -12
-41 -8 2 -13 21 -12 46 l1 41 -329 0 -328 0 0 -46 c0 -32 -4 -44 -12 -41 -8 2
-13 21 -12 46 l1 41 -659 0 -659 0 3 -52z m58 -3 c0 -24 -5 -35 -15 -35 -10 0
-15 11 -15 35 0 24 5 35 15 35 10 0 15 -11 15 -35z m90 25 c0 -5 -11 -10 -25
-10 -14 0 -25 -4 -25 -10 0 -5 12 -10 26 -10 16 0 24 -5 22 -12 -7 -19 -59
-16 -71 3 -17 28 -1 49 38 49 19 0 35 -4 35 -10z m78 -22 c-3 -29 -7 -33 -35
-36 -32 -3 -33 -2 -33 32 0 35 1 36 36 36 34 0 35 -1 32 -32z m51 20 c11 -10
14 -10 18 0 9 25 23 11 23 -23 0 -39 -5 -42 -32 -18 -17 15 -18 15 -18 -1 0
-22 -24 -15 -28 8 -4 21 4 46 16 46 4 0 14 -6 21 -12z m210 -1 c-9 -7 -18 -21
-20 -31 -6 -30 -29 -32 -29 -3 0 16 -7 26 -20 30 -17 4 -20 1 -18 -21 3 -25 0
-27 -32 -27 -32 0 -35 3 -38 32 l-3 32 88 0 c71 0 85 -3 72 -12z m131 3 c0 -5
-4 -10 -9 -10 -5 0 -11 -10 -13 -22 -5 -32 -28 -35 -28 -4 0 17 -5 26 -16 26
-8 0 -12 5 -9 10 3 6 22 10 41 10 19 0 34 -4 34 -10z m85 -22 c0 -31 -2 -33
-35 -33 -32 0 -35 3 -38 33 -3 31 -2 32 35 32 36 0 38 -2 38 -32z m35 12 c0
-15 7 -20 25 -20 18 0 25 5 25 20 0 17 7 20 38 20 37 0 38 -1 38 -32 -1 -29
-5 -33 -29 -36 -16 -2 -34 2 -42 8 -9 7 -15 8 -20 0 -3 -5 -17 -10 -31 -10
-21 0 -24 5 -24 35 0 19 5 35 10 35 6 0 10 -9 10 -20z m312 3 c17 -15 18 -15
18 0 0 22 26 22 39 0 9 -17 10 -17 16 0 14 36 45 13 45 -34 0 -20 -15 -26 -25
-9 -5 8 -11 8 -20 0 -10 -8 -15 -8 -20 0 -5 9 -10 9 -18 1 -16 -16 -27 -14
-27 5 0 14 -1 14 -16 0 -30 -31 -77 -16 -85 26 -3 13 -8 15 -19 8 -13 -9 -12
-12 4 -25 24 -18 12 -34 -14 -17 -12 7 -21 8 -25 2 -13 -21 -25 -9 -25 24 l0
33 77 1 c58 1 82 -3 95 -15z m202 5 c5 -10 7 -10 12 0 12 26 34 12 34 -23 0
-35 -16 -47 -26 -20 -4 8 -10 15 -15 15 -5 0 -9 -7 -9 -15 0 -8 -7 -15 -15
-15 -10 0 -15 11 -15 35 0 35 22 49 34 23z m176 3 c0 -6 -5 -13 -11 -17 -8 -5
-8 -9 1 -14 19 -12 2 -30 -29 -30 -37 0 -44 10 -24 32 15 17 15 18 -1 18 -9 0
-14 5 -11 10 8 13 75 13 75 1z m59 -8 c9 -17 10 -17 16 0 14 36 45 13 45 -34
0 -20 -15 -26 -25 -9 -5 8 -11 8 -20 0 -10 -8 -15 -8 -20 0 -5 8 -11 8 -21 -1
-20 -17 -27 -6 -19 30 7 34 29 41 44 14z m231 6 c0 -5 -7 -9 -15 -9 -9 0 -15
-9 -15 -25 0 -14 -4 -25 -10 -25 -5 0 -10 11 -10 24 0 15 -7 26 -20 29 -16 4
-20 1 -18 -11 4 -27 -11 -42 -43 -42 -26 0 -29 3 -29 35 l0 34 80 0 c44 0 80
-4 80 -10z m40 -9 c0 -14 7 -20 21 -20 33 0 16 -25 -19 -28 -31 -3 -32 -2 -32
32 0 25 4 36 15 36 8 0 15 -9 15 -20z m122 -15 c-4 -32 -7 -35 -38 -35 -32 0
-34 2 -34 35 0 34 1 35 38 35 38 0 38 0 34 -35z m98 0 c0 -24 -5 -35 -15 -35
-8 0 -15 5 -15 10 0 14 -27 13 -32 -2 -5 -15 -28 -1 -28 18 0 9 12 15 33 15
30 2 30 2 5 6 -42 7 -33 23 12 23 39 0 40 -1 40 -35z m174 10 c25 -38 20 -45
-34 -45 -27 0 -50 2 -50 5 0 13 45 65 56 65 6 0 19 -11 28 -25z m56 -30 c0 -8
-4 -15 -9 -15 -13 0 -22 16 -14 24 11 11 23 6 23 -9z m130 0 c0 -8 -4 -15 -9
-15 -13 0 -22 16 -14 24 11 11 23 6 23 -9z"/>
<path d="M1110 940 c0 -5 9 -10 21 -10 11 0 17 5 14 10 -3 6 -13 10 -21 10 -8
0 -14 -4 -14 -10z"/>
</g>
</svg>
